inDegrees=no
num_controls=7
num_derivatives=13
num_iterations=189
num_multipliers=7
num_parameters=0
num_slacks=7
num_states=26
objective=5.760840
objective_accelerations=0.732387
objective_balance=0.044413
objective_effort=0.261486
objective_height=4.611498
objective_ligament=0.111055
solver_duration=2087.840588
status=Solve_Succeeded
success=true
DataType=double
version=3
OpenSimVersion=4.4-2022-07-23-0e9fedc
endheader
time	/jointset/ground_pelvis/pelvis_tilt/value	/jointset/ground_pelvis/pelvis_tx/value	/jointset/ground_pelvis/pelvis_ty/value	/jointset/hip_l/hip_flexion_l/value	/jointset/hip_l/hip_adduction_l/value	/jointset/hip_l/hip_rotation_l/value	/jointset/back/lumbar_extension/value	/jointset/patellofemoral_l/patellar_flexion_l/value	/jointset/knee_l/knee_flexion_l/value	/jointset/knee_l/knee_adduction_l/value	/jointset/knee_l/knee_rotation_l/value	/jointset/ankle_l/ankle_angle_l/value	/jointset/subtalar_l/subtalar_angle_l/value	/jointset/ground_pelvis/pelvis_tilt/speed	/jointset/ground_pelvis/pelvis_tx/speed	/jointset/ground_pelvis/pelvis_ty/speed	/jointset/hip_l/hip_flexion_l/speed	/jointset/hip_l/hip_adduction_l/speed	/jointset/hip_l/hip_rotation_l/speed	/jointset/back/lumbar_extension/speed	/jointset/patellofemoral_l/patellar_flexion_l/speed	/jointset/knee_l/knee_flexion_l/speed	/jointset/knee_l/knee_adduction_l/speed	/jointset/knee_l/knee_rotation_l/speed	/jointset/ankle_l/ankle_angle_l/speed	/jointset/subtalar_l/subtalar_angle_l/speed	/forceset/tau_hip_flexion_l	/forceset/tau_hip_adduction_l	/forceset/tau_hip_rotation_l	/forceset/tau_knee_flexion_l	/forceset/tau_ankle_angle_l	/forceset/tau_subtalar_angle_l	/forceset/tau_lumbar_extension	lambda_cid13_p0	lambda_cid13_p1	lambda_cid13_p2	lambda_cid13_p3	lambda_cid13_p4	lambda_cid13_p5	lambda_cid14_p0	/jointset/ground_pelvis/pelvis_tilt/accel	/jointset/ground_pelvis/pelvis_tx/accel	/jointset/ground_pelvis/pelvis_ty/accel	/jointset/hip_l/hip_flexion_l/accel	/jointset/hip_l/hip_adduction_l/accel	/jointset/hip_l/hip_rotation_l/accel	/jointset/back/lumbar_extension/accel	/jointset/patellofemoral_l/patellar_flexion_l/accel	/jointset/knee_l/knee_flexion_l/accel	/jointset/knee_l/knee_adduction_l/accel	/jointset/knee_l/knee_rotation_l/accel	/jointset/ankle_l/ankle_angle_l/accel	/jointset/subtalar_l/subtalar_angle_l/accel	gamma_cid13_p0	gamma_cid13_p1	gamma_cid13_p2	gamma_cid13_p3	gamma_cid13_p4	gamma_cid13_p5	gamma_cid14_p0
1	-0.410676080251637	0.006033724762774057	0.5787628388167076	1.626528250033825	-0.4910494750123039	0.03721373639836057	-0.261799210315992	1.51489491692591	1.51489491692528	-0.05586094568988129	-0.1745327611567527	0.4362517901374516	0.1048643665397589	-0.01680693445287221	0.008643395517869775	0.0006746834883215367	0.0008207804846794079	-0.003141522390183192	0.001185178101019002	-6.805591091690506e-06	0.0004097942674831925	0.0004097942674830769	-0.003779738003616567	-3.521805642352109e-07	0.01587931531959094	0.008017120798100554	-0.2627980733629504	0.04934249389637799	0.003312788877430002	-0.3565956364838029	-0.075661031614055	0.0169417505650598	0.2398656131740677	-64.03771527053394	5.023687900945806	-2.472052854931554	16.42059325848844	-640.5361845289559	-56.44300727052793	-0.03771434011592247	1.104778577268312	-0.007599339060891549	1.961720436876459	-6.03035355686397	0.1310172251913714	-2.491346435477089	-0.01600805322237933	-5.723998741443618	-5.723998741443409	-0.6831106268241089	-0.03544211985142617	-1.571677192653262	-1.049495081632321	2.9216234066426e-09	2.145575178184637e-08	-1.470707492524561e-08	4.424185894527323e-09	-7.756843788930409e-10	3.779503386953692e-08	7.322410969279872e-10
1.01	-0.410789638815625	0.006119765988413181	0.5788675306618483	1.626236012775763	-0.4910734625525724	0.0370999200108339	-0.2617992688819429	1.514613061609105	1.514613061608704	-0.05593026987985895	-0.1745327855220299	0.4363322663372576	0.1048937849173463	-0.005905090545296308	0.008568010288785741	0.02026049017293366	-0.05926186645080447	-0.001653094933451574	-0.0239443044214361	-4.190416610234162e-06	-0.05677858822999843	-0.05677858822999663	-0.01008420478698086	-3.577304174637494e-06	0.000213289935224582	-0.002130586937542998	-0.2627109121173485	0.04936628518069574	0.003298158434972146	-0.356446799438624	-0.07566565164248067	0.01697450177313066	0.2398010524345859	-64.02440636386063	4.998450727618287	-2.458111249482644	16.3169009116222	-640.3930393911188	-56.45929244585525	-0.03813875041717387	1.08283933993636	-0.00703337309378128	1.956529219245513	-5.996266765964157	0.1581865367922906	-2.523133538131354	0.008503880775135225	-5.715915104444423	-5.71591510444427	-0.6039857809357961	0.01738776447964005	-1.564460903505108	-0.9969843801264118	-5.9579402147211e-09	3.904893450627302e-09	3.317971777214771e-08	3.211857692446103e-09	-1.119468548484213e-08	7.024850926951585e-08	-1.231670857647699e-08
1.02	-0.4107941885320495	0.006205148310109097	0.5791679842608332	1.625343139747538	-0.4910824796120967	0.03673493192258577	-0.2617992797805804	1.513759391047216	1.513759391047042	-0.05606261295303862	-0.1745328120439183	0.436256003144791	0.1048218110654583	0.004994835059644842	0.008511614729227769	0.0398270342572216	-0.1193063735492322	-0.0001474262415944276	-0.04904916204395505	2.727877540632723e-06	-0.1139532547492401	-0.1139532547492376	-0.01638351464407226	-7.835039645393039e-07	-0.01546856313621328	-0.01226132509702726	-0.2626237508717083	0.04939007646503254	0.003283527992508293	-0.3562979623934447	-0.07567027167090555	0.01700725298123459	0.2397364916951406	-64.01894061891586	4.97507218024493	-2.445020341707052	16.25349164470008	-640.3710274974536	-56.45320637198017	-0.03944114560617688	1.104394916741363	-0.003801405155682539	1.957867916811626	-6.022725589452741	0.1344654722164967	-2.486421455489839	-0.01514742928843544	-5.721255545795623	-5.721255545795661	-0.6820792415695236	-0.03423833508728151	-1.574842730067566	-1.046101166400432	-1.468552708633673e-08	-1.357974395003912e-08	8.112030359473523e-08	1.717557411640116e-09	-2.142865425925711e-08	1.025082076646043e-07	-2.536525471067374e-08
1.03	-0.4106897126274358	0.006290079305437537	0.5796639279695351	1.623850169885074	-0.4910763192048806	0.03611910494485699	-0.2617992205312075	1.512334133623817	1.512334133623973	-0.0562578910160415	-0.1745328034086001	0.4360227714931397	0.1046486502692551	0.01590325776872681	0.008479475550902992	0.05935063070056423	-0.1792652275155715	0.001386724028792087	-0.07410309839513451	8.163882890362685e-06	-0.1710869181519076	-0.1710869181519075	-0.02266703565035645	3.191607523822151e-06	-0.03118717615090289	-0.02236279351885464	-0.2623067560351713	0.04941352753774347	0.003233515853767374	-0.3558731025444235	-0.07558513241699771	0.01710378473239364	0.2395019131978693	-63.95696905958135	4.897814572409263	-2.404737770294122	16.12802242506011	-640.0008132509612	-56.4932765070461	-0.04182213785955326	1.084500035614993	-0.002186456989311891	1.947937596543964	-5.979112849604336	0.1639572156798255	-2.512933316195102	0.008245398209329506	-5.707717208834908	-5.70771720883526	-0.600747581398839	0.0178466635065176	-1.571785187067502	-0.9909738253867695	-2.341156317479168e-08	-3.106370562692438e-08	1.290614383267635e-07	2.203798647246917e-10	-3.166073494865642e-08	1.347659287433163e-07	-3.841379672712347e-08
